<svg width="113" height="139" viewBox="0 0 113 139" fill="none" xmlns="http://www.w3.org/2000/svg">
<path fill-rule="evenodd" clip-rule="evenodd" d="M84.1285 0C85.0184 8.13844 81.7565 16.3178 76.9102 22.1934C72.0637 28.0728 64.1095 32.6391 56.3233 32.0358C55.2622 24.0584 59.1948 15.7351 63.6853 10.5348C68.6958 4.66242 77.1429 0.281205 84.1285 0ZM112.971 101.959C112.131 101.618 94.5656 94.4927 94.3742 73.8463C94.2198 56.6245 108.12 48.1607 109.314 47.4342C109.339 47.4189 109.358 47.407 109.372 47.3985C101.216 35.4413 88.5146 33.7992 83.9897 33.6106C77.3785 32.9396 70.9645 35.4736 65.7267 37.543C62.4012 38.8568 59.5499 39.9833 57.4233 39.9833C55.0505 39.9833 52.1188 38.8187 48.8293 37.5119C44.5221 35.8008 39.6014 33.8461 34.5191 33.9432C22.7351 34.1147 11.8784 40.8029 5.80324 51.3647C-6.42582 72.6329 2.68167 104.141 14.5993 121.398C20.4315 129.834 27.3827 139.337 36.511 138.991C40.596 138.83 43.4998 137.591 46.5024 136.31C49.9652 134.833 53.5592 133.3 59.2476 133.3C64.6819 133.3 68.1183 134.789 71.4225 136.221C74.5778 137.588 77.6127 138.903 82.1518 138.819C91.6087 138.645 97.6119 130.208 103.396 121.741C109.872 112.261 112.665 103.074 112.977 102.046C112.987 102.012 112.995 101.987 113 101.971C112.996 101.969 112.986 101.965 112.971 101.959Z" fill="black"/>
</svg>
